<svg version="1.1" viewBox="0.0 0.0 663.0 410.0" fill="none" stroke="none" stroke-linecap="square" stroke-miterlimit="10" width="663" height="410" xmlns:xlink="http://www.w3.org/1999/xlink" xmlns="http://www.w3.org/2000/svg"><path fill="#ffffff" d="M0 0L663.0 0L663.0 410.0L0 410.0L0 0Z" fill-rule="nonzero"/><path stroke="#cccccc" stroke-width="1.0" stroke-linecap="butt" d="M79.5 55.5L79.5 337.5" fill-rule="nonzero"/><path stroke="#cccccc" stroke-width="1.0" stroke-linecap="butt" d="M220.5 55.5L220.5 337.5" fill-rule="nonzero"/><path stroke="#cccccc" stroke-width="1.0" stroke-linecap="butt" d="M361.5 55.5L361.5 337.5" fill-rule="nonzero"/><path stroke="#cccccc" stroke-width="1.0" stroke-linecap="butt" d="M501.5 55.5L501.5 337.5" fill-rule="nonzero"/><path stroke="#cccccc" stroke-width="1.0" stroke-linecap="butt" d="M642.5 55.5L642.5 337.5" fill-rule="nonzero"/><path stroke="#333333" stroke-width="1.0" stroke-linecap="butt" d="M79.5 337.5L642.5 337.5" fill-rule="nonzero"/><path stroke="#cccccc" stroke-width="1.0" stroke-linecap="butt" d="M79.5 266.5L642.5 266.5" fill-rule="nonzero"/><path stroke="#cccccc" stroke-width="1.0" stroke-linecap="butt" d="M79.5 196.5L642.5 196.5" fill-rule="nonzero"/><path stroke="#cccccc" stroke-width="1.0" stroke-linecap="butt" d="M79.5 125.5L642.5 125.5" fill-rule="nonzero"/><path stroke="#cccccc" stroke-width="1.0" stroke-linecap="butt" d="M79.5 55.5L642.5 55.5" fill-rule="nonzero"/><clipPath id="id_0"><path d="M79.5 55.166668L642.5 55.166668L642.5 337.5L79.5 337.5L79.5 55.166668Z" clip-rule="nonzero"/></clipPath><path stroke="#4285f4" stroke-width="2.0" stroke-linecap="butt" clip-path="url(#id_0)" d="M79.5 107.03554L220.25 206.15572L361.0 210.54459L501.75 213.47379L642.5 222.24023" fill-rule="nonzero"/><path stroke="#ea4335" stroke-width="2.0" stroke-linecap="butt" clip-path="url(#id_0)" d="M79.5 228.73814L220.25 269.94186L361.0 292.53983L501.75 296.71695L642.5 297.51312" fill-rule="nonzero"/><path stroke="#fbbc04" stroke-width="2.0" stroke-linecap="butt" clip-path="url(#id_0)" d="M79.5 233.36699L220.25 281.26202L361.0 297.8717L501.75 305.77704L642.5 304.4331" fill-rule="nonzero"/><path fill="#000000" fill-opacity="0.0" clip-path="url(#id_0)" d="M82.5 107.03554C82.5 108.69239 81.15685 110.03554 79.5 110.03554C77.84315 110.03554 76.5 108.69239 76.5 107.03554C76.5 105.37868 77.84315 104.03554 79.5 104.03554C81.15685 104.03554 82.5 105.37868 82.5 107.03554Z" fill-rule="nonzero"/><path fill="#000000" fill-opacity="0.0" clip-path="url(#id_0)" d="M223.25 206.15572C223.25 207.81256 221.90686 209.15572 220.25 209.15572C218.59314 209.15572 217.25 207.81256 217.25 206.15572C217.25 204.49886 218.59314 203.15572 220.25 203.15572C221.90686 203.15572 223.25 204.49886 223.25 206.15572Z" fill-rule="nonzero"/><path fill="#000000" fill-opacity="0.0" clip-path="url(#id_0)" d="M364.0 210.54459C364.0 212.20143 362.65686 213.54459 361.0 213.54459C359.34314 213.54459 358.0 212.20143 358.0 210.54459C358.0 208.88773 359.34314 207.54459 361.0 207.54459C362.65686 207.54459 364.0 208.88773 364.0 210.54459Z" fill-rule="nonzero"/><path fill="#000000" fill-opacity="0.0" clip-path="url(#id_0)" d="M504.75 213.47379C504.75 215.13065 503.40686 216.47379 501.75 216.47379C500.09314 216.47379 498.75 215.13065 498.75 213.47379C498.75 211.81694 500.09314 210.47379 501.75 210.47379C503.40686 210.47379 504.75 211.81694 504.75 213.47379Z" fill-rule="nonzero"/><path fill="#000000" fill-opacity="0.0" clip-path="url(#id_0)" d="M645.5 222.24023C645.5 223.8971 644.15686 225.24023 642.5 225.24023C640.84314 225.24023 639.5 223.8971 639.5 222.24023C639.5 220.58339 640.84314 219.24023 642.5 219.24023C644.15686 219.24023 645.5 220.58339 645.5 222.24023Z" fill-rule="nonzero"/><path fill="#000000" fill-opacity="0.0" clip-path="url(#id_0)" d="M82.5 228.73814C82.5 230.39499 81.15685 231.73814 79.5 231.73814C77.84315 231.73814 76.5 230.39499 76.5 228.73814C76.5 227.08128 77.84315 225.73814 79.5 225.73814C81.15685 225.73814 82.5 227.08128 82.5 228.73814Z" fill-rule="nonzero"/><path fill="#000000" fill-opacity="0.0" clip-path="url(#id_0)" d="M223.25 269.94186C223.25 271.59872 221.90686 272.94186 220.25 272.94186C218.59314 272.94186 217.25 271.59872 217.25 269.94186C217.25 268.285 218.59314 266.94186 220.25 266.94186C221.90686 266.94186 223.25 268.285 223.25 269.94186Z" fill-rule="nonzero"/><path fill="#000000" fill-opacity="0.0" clip-path="url(#id_0)" d="M364.0 292.53983C364.0 294.1967 362.65686 295.53983 361.0 295.53983C359.34314 295.53983 358.0 294.1967 358.0 292.53983C358.0 290.88297 359.34314 289.53983 361.0 289.53983C362.65686 289.53983 364.0 290.88297 364.0 292.53983Z" fill-rule="nonzero"/><path fill="#000000" fill-opacity="0.0" clip-path="url(#id_0)" d="M504.75 296.71695C504.75 298.3738 503.40686 299.71695 501.75 299.71695C500.09314 299.71695 498.75 298.3738 498.75 296.71695C498.75 295.0601 500.09314 293.71695 501.75 293.71695C503.40686 293.71695 504.75 295.0601 504.75 296.71695Z" fill-rule="nonzero"/><path fill="#000000" fill-opacity="0.0" clip-path="url(#id_0)" d="M645.5 297.51312C645.5 299.16998 644.15686 300.51312 642.5 300.51312C640.84314 300.51312 639.5 299.16998 639.5 297.51312C639.5 295.85626 640.84314 294.51312 642.5 294.51312C644.15686 294.51312 645.5 295.85626 645.5 297.51312Z" fill-rule="nonzero"/><path fill="#000000" fill-opacity="0.0" clip-path="url(#id_0)" d="M82.5 233.36699C82.5 235.02385 81.15685 236.36699 79.5 236.36699C77.84315 236.36699 76.5 235.02385 76.5 233.36699C76.5 231.71014 77.84315 230.36699 79.5 230.36699C81.15685 230.36699 82.5 231.71014 82.5 233.36699Z" fill-rule="nonzero"/><path fill="#000000" fill-opacity="0.0" clip-path="url(#id_0)" d="M223.25 281.26202C223.25 282.91888 221.90686 284.26202 220.25 284.26202C218.59314 284.26202 217.25 282.91888 217.25 281.26202C217.25 279.60516 218.59314 278.26202 220.25 278.26202C221.90686 278.26202 223.25 279.60516 223.25 281.26202Z" fill-rule="nonzero"/><path fill="#000000" fill-opacity="0.0" clip-path="url(#id_0)" d="M364.0 297.8717C364.0 299.52853 362.65686 300.8717 361.0 300.8717C359.34314 300.8717 358.0 299.52853 358.0 297.8717C358.0 296.21484 359.34314 294.8717 361.0 294.8717C362.65686 294.8717 364.0 296.21484 364.0 297.8717Z" fill-rule="nonzero"/><path fill="#000000" fill-opacity="0.0" clip-path="url(#id_0)" d="M504.75 305.77704C504.75 307.43387 503.40686 308.77704 501.75 308.77704C500.09314 308.77704 498.75 307.43387 498.75 305.77704C498.75 304.12018 500.09314 302.77704 501.75 302.77704C503.40686 302.77704 504.75 304.12018 504.75 305.77704Z" fill-rule="nonzero"/><path fill="#000000" fill-opacity="0.0" clip-path="url(#id_0)" d="M645.5 304.4331C645.5 306.08997 644.15686 307.4331 642.5 307.4331C640.84314 307.4331 639.5 306.08997 639.5 304.4331C639.5 302.77628 640.84314 301.4331 642.5 301.4331C644.15686 301.4331 645.5 302.77628 645.5 304.4331Z" fill-rule="nonzero"/><path fill="#000000" d="M309.42188 386.5L309.42188 377.90625L310.57812 377.90625L315.09375 384.65625L315.09375 377.90625L316.1875 377.90625L316.1875 386.5L315.01562 386.5L310.5 379.75L310.5 386.5L309.42188 386.5ZM322.375 386.5L322.375 385.57812Q321.64062 386.64062 320.39062 386.64062Q319.84375 386.64062 319.35938 386.4375Q318.89062 386.21875 318.65625 385.90625Q318.42188 385.57812 318.32812 385.10938Q318.26562 384.8125 318.26562 384.125L318.26562 380.28125L319.32812 380.28125L319.32812 383.73438Q319.32812 384.54688 319.39062 384.84375Q319.48438 385.25 319.79688 385.5Q320.125 385.73438 320.60938 385.73438Q321.07812 385.73438 321.48438 385.5Q321.90625 385.25 322.07812 384.82812Q322.26562 384.40625 322.26562 383.60938L322.26562 380.28125L323.3125 380.28125L323.3125 386.5L322.375 386.5ZM325.29688 386.5L325.29688 380.28125L326.23438 380.28125L326.23438 381.15625Q326.53125 380.6875 327.01562 380.42188Q327.5 380.14062 328.125 380.14062Q328.8125 380.14062 329.25 380.42188Q329.70312 380.70312 329.875 381.21875Q330.625 380.14062 331.79688 380.14062Q332.73438 380.14062 333.21875 380.65625Q333.71875 381.15625 333.71875 382.23438L333.71875 386.5L332.67188 386.5L332.67188 382.57812Q332.67188 381.95312 332.5625 381.67188Q332.46875 381.39062 332.20312 381.21875Q331.9375 381.04688 331.5625 381.04688Q330.90625 381.04688 330.46875 381.48438Q330.04688 381.92188 330.04688 382.89062L330.04688 386.5L328.98438 386.5L328.98438 382.45312Q328.98438 381.75 328.71875 381.40625Q328.46875 381.04688 327.89062 381.04688Q327.4375 381.04688 327.0625 381.28125Q326.6875 381.51562 326.51562 381.96875Q326.34375 382.42188 326.34375 383.26562L326.34375 386.5L325.29688 386.5ZM337.26562 386.5L336.28125 386.5L336.28125 377.90625L337.34375 377.90625L337.34375 380.96875Q338.01562 380.14062 339.04688 380.14062Q339.625 380.14062 340.125 380.375Q340.64062 380.59375 340.96875 381.01562Q341.3125 381.4375 341.5 382.03125Q341.6875 382.625 341.6875 383.29688Q341.6875 384.89062 340.89062 385.76562Q340.09375 386.64062 339.0 386.64062Q337.89062 386.64062 337.26562 385.71875L337.26562 386.5ZM337.25 383.34375Q337.25 384.45312 337.5625 384.95312Q338.0625 385.76562 338.90625 385.76562Q339.59375 385.76562 340.09375 385.17188Q340.60938 384.57812 340.60938 383.375Q340.60938 382.15625 340.125 381.57812Q339.64062 381.0 338.95312 381.0Q338.26562 381.0 337.75 381.60938Q337.25 382.20312 337.25 383.34375ZM347.54688 384.5L348.64062 384.625Q348.39062 385.57812 347.6875 386.10938Q346.98438 386.64062 345.90625 386.64062Q344.54688 386.64062 343.73438 385.79688Q342.9375 384.95312 342.9375 383.4375Q342.9375 381.875 343.75 381.01562Q344.5625 380.14062 345.84375 380.14062Q347.09375 380.14062 347.875 380.98438Q348.67188 381.82812 348.67188 383.375Q348.67188 383.46875 348.67188 383.65625L344.03125 383.65625Q344.09375 384.6875 344.60938 385.23438Q345.125 385.76562 345.90625 385.76562Q346.48438 385.76562 346.89062 385.46875Q347.3125 385.15625 347.54688 384.5ZM344.09375 382.79688L347.5625 382.79688Q347.5 382.0 347.17188 381.60938Q346.65625 381.0 345.85938 381.0Q345.125 381.0 344.625 381.48438Q344.14062 381.96875 344.09375 382.79688ZM350.28125 386.5L350.28125 380.28125L351.23438 380.28125L351.23438 381.21875Q351.59375 380.5625 351.89062 380.35938Q352.20312 380.14062 352.57812 380.14062Q353.10938 380.14062 353.65625 380.46875L353.29688 381.45312Q352.90625 381.21875 352.53125 381.21875Q352.17188 381.21875 351.89062 381.4375Q351.625 381.64062 351.51562 382.01562Q351.32812 382.57812 351.32812 383.23438L351.32812 386.5L350.28125 386.5ZM356.90625 383.39062Q356.90625 381.65625 357.85938 380.82812Q358.65625 380.14062 359.8125 380.14062Q361.09375 380.14062 361.90625 380.98438Q362.73438 381.8125 362.73438 383.29688Q362.73438 384.5 362.375 385.1875Q362.01562 385.875 361.3125 386.26562Q360.625 386.64062 359.8125 386.64062Q358.51562 386.64062 357.70312 385.8125Q356.90625 384.96875 356.90625 383.39062ZM357.98438 383.39062Q357.98438 384.57812 358.5 385.17188Q359.03125 385.76562 359.8125 385.76562Q360.60938 385.76562 361.125 385.17188Q361.64062 384.57812 361.64062 383.35938Q361.64062 382.20312 361.10938 381.60938Q360.59375 381.01562 359.8125 381.01562Q359.03125 381.01562 358.5 381.60938Q357.98438 382.1875 357.98438 383.39062ZM364.54688 386.5L364.54688 381.09375L363.60938 381.09375L363.60938 380.28125L364.54688 380.28125L364.54688 379.60938Q364.54688 378.98438 364.65625 378.6875Q364.8125 378.26562 365.1875 378.01562Q365.57812 377.76562 366.26562 377.76562Q366.71875 377.76562 367.25 377.875L367.09375 378.78125Q366.76562 378.73438 366.46875 378.73438Q365.98438 378.73438 365.78125 378.9375Q365.59375 379.14062 365.59375 379.70312L365.59375 380.28125L366.8125 380.28125L366.8125 381.09375L365.59375 381.09375L365.59375 386.5L364.54688 386.5ZM371.4375 386.5L369.53125 380.28125L370.625 380.28125L371.60938 383.875L371.98438 385.20312Q372.01562 385.10938 372.3125 383.92188L373.29688 380.28125L374.375 380.28125L375.3125 383.89062L375.625 385.07812L375.98438 383.875L377.04688 380.28125L378.07812 380.28125L376.125 386.5L375.03125 386.5L374.04688 382.76562L373.79688 381.71875L372.54688 386.5L371.4375 386.5ZM378.90625 383.39062Q378.90625 381.65625 379.85938 380.82812Q380.65625 380.14062 381.8125 380.14062Q383.09375 380.14062 383.90625 380.98438Q384.73438 381.8125 384.73438 383.29688Q384.73438 384.5 384.375 385.1875Q384.01562 385.875 383.3125 386.26562Q382.625 386.64062 381.8125 386.64062Q380.51562 386.64062 379.70312 385.8125Q378.90625 384.96875 378.90625 383.39062ZM379.98438 383.39062Q379.98438 384.57812 380.5 385.17188Q381.03125 385.76562 381.8125 385.76562Q382.60938 385.76562 383.125 385.17188Q383.64062 384.57812 383.64062 383.35938Q383.64062 382.20312 383.10938 381.60938Q382.59375 381.01562 381.8125 381.01562Q381.03125 381.01562 380.5 381.60938Q379.98438 382.1875 379.98438 383.39062ZM386.28125 386.5L386.28125 380.28125L387.23438 380.28125L387.23438 381.21875Q387.59375 380.5625 387.89062 380.35938Q388.20312 380.14062 388.57812 380.14062Q389.10938 380.14062 389.65625 380.46875L389.29688 381.45312Q388.90625 381.21875 388.53125 381.21875Q388.17188 381.21875 387.89062 381.4375Q387.625 381.64062 387.51562 382.01562Q387.32812 382.57812 387.32812 383.23438L387.32812 386.5L386.28125 386.5ZM390.29688 386.5L390.29688 377.90625L391.35938 377.90625L391.35938 382.8125L393.84375 380.28125L395.21875 380.28125L392.82812 382.57812L395.45312 386.5L394.15625 386.5L392.09375 383.3125L391.35938 384.03125L391.35938 386.5L390.29688 386.5ZM400.54688 384.5L401.64062 384.625Q401.39062 385.57812 400.6875 386.10938Q399.98438 386.64062 398.90625 386.64062Q397.54688 386.64062 396.73438 385.79688Q395.9375 384.95312 395.9375 383.4375Q395.9375 381.875 396.75 381.01562Q397.5625 380.14062 398.84375 380.14062Q400.09375 380.14062 400.875 380.98438Q401.67188 381.82812 401.67188 383.375Q401.67188 383.46875 401.67188 383.65625L397.03125 383.65625Q397.09375 384.6875 397.60938 385.23438Q398.125 385.76562 398.90625 385.76562Q399.48438 385.76562 399.89062 385.46875Q400.3125 385.15625 400.54688 384.5ZM397.09375 382.79688L400.5625 382.79688Q400.5 382.0 400.17188 381.60938Q399.65625 381.0 398.85938 381.0Q398.125 381.0 397.625 381.48438Q397.14062 381.96875 397.09375 382.79688ZM403.28125 386.5L403.28125 380.28125L404.23438 380.28125L404.23438 381.21875Q404.59375 380.5625 404.89062 380.35938Q405.20312 380.14062 405.57812 380.14062Q406.10938 380.14062 406.65625 380.46875L406.29688 381.45312Q405.90625 381.21875 405.53125 381.21875Q405.17188 381.21875 404.89062 381.4375Q404.625 381.64062 404.51562 382.01562Q404.32812 382.57812 404.32812 383.23438L404.32812 386.5L403.28125 386.5ZM406.875 384.64062L407.90625 384.48438Q408.0 385.10938 408.39062 385.4375Q408.79688 385.76562 409.53125 385.76562Q410.25 385.76562 410.59375 385.48438Q410.95312 385.1875 410.95312 384.78125Q410.95312 384.42188 410.64062 384.21875Q410.42188 384.07812 409.5625 383.85938Q408.40625 383.5625 407.95312 383.35938Q407.51562 383.14062 407.28125 382.76562Q407.04688 382.39062 407.04688 381.92188Q407.04688 381.51562 407.23438 381.15625Q407.42188 380.79688 407.75 380.5625Q408.0 380.39062 408.42188 380.26562Q408.84375 380.14062 409.34375 380.14062Q410.0625 380.14062 410.60938 380.35938Q411.17188 380.5625 411.4375 380.92188Q411.70312 381.28125 411.79688 381.875L410.76562 382.01562Q410.70312 381.54688 410.35938 381.28125Q410.03125 381.0 409.40625 381.0Q408.6875 381.0 408.375 381.25Q408.0625 381.48438 408.0625 381.8125Q408.0625 382.01562 408.1875 382.17188Q408.32812 382.34375 408.59375 382.45312Q408.75 382.51562 409.53125 382.71875Q410.65625 383.03125 411.09375 383.21875Q411.53125 383.40625 411.78125 383.76562Q412.03125 384.125 412.03125 384.67188Q412.03125 385.20312 411.71875 385.67188Q411.42188 386.125 410.84375 386.39062Q410.26562 386.64062 409.53125 386.64062Q408.3125 386.64062 407.67188 386.14062Q407.04688 385.625 406.875 384.64062Z" fill-rule="nonzero"/><path fill="#000000" d="M31.5 241.8802L22.90625 241.8802L22.90625 235.67708L23.921875 235.67708L23.921875 240.73958L26.546875 240.73958L26.546875 235.98958L27.5625 235.98958L27.5625 240.73958L30.484375 240.73958L30.484375 235.47395L31.5 235.47395L31.5 241.8802ZM31.5 234.73958L28.265625 232.47395L25.28125 234.5677L25.28125 233.2552L26.734375 232.30208Q27.15625 232.03645 27.4375 231.86458Q27.046875 231.61458 26.75 231.39583L25.28125 230.34895L25.28125 229.08333L28.203125 231.23958L31.5 228.92708L31.5 230.20833L29.5625 231.48958L29.046875 231.83333L31.5 233.47395L31.5 234.73958ZM29.5 224.78645L29.625 223.6927Q30.578125 223.9427 31.109375 224.64583Q31.640625 225.34895 31.640625 226.42708Q31.640625 227.78645 30.796875 228.59895Q29.953125 229.39583 28.4375 229.39583Q26.875 229.39583 26.015625 228.58333Q25.140625 227.77083 25.140625 226.48958Q25.140625 225.23958 25.984375 224.45833Q26.828125 223.66145 28.375 223.66145Q28.46875 223.66145 28.65625 223.66145L28.65625 228.30208Q29.6875 228.23958 30.234375 227.72395Q30.765625 227.20833 30.765625 226.42708Q30.765625 225.84895 30.46875 225.4427Q30.15625 225.02083 29.5 224.78645ZM27.796875 228.23958L27.796875 224.77083Q27.0 224.83333 26.609375 225.16145Q26.0 225.67708 26.0 226.47395Q26.0 227.20833 26.484375 227.70833Q26.96875 228.1927 27.796875 228.23958ZM29.21875 217.97395L29.359375 216.9427Q30.421875 217.11458 31.03125 217.8177Q31.640625 218.52083 31.640625 219.53645Q31.640625 220.8177 30.8125 221.59895Q29.96875 222.36458 28.40625 222.36458Q27.40625 222.36458 26.65625 222.03645Q25.890625 221.6927 25.515625 221.02083Q25.140625 220.33333 25.140625 219.52083Q25.140625 218.52083 25.65625 217.8802Q26.15625 217.22395 27.109375 217.03645L27.265625 218.0677Q26.640625 218.20833 26.328125 218.58333Q26.0 218.95833 26.0 219.48958Q26.0 220.28645 26.578125 220.78645Q27.140625 221.28645 28.375 221.28645Q29.640625 221.28645 30.203125 220.80208Q30.765625 220.3177 30.765625 219.55208Q30.765625 218.92708 30.390625 218.52083Q30.015625 218.09895 29.21875 217.97395ZM31.5 211.95833L30.578125 211.95833Q31.640625 212.6927 31.640625 213.9427Q31.640625 214.48958 31.4375 214.97395Q31.21875 215.4427 30.90625 215.67708Q30.578125 215.91145 30.109375 216.0052Q29.8125 216.0677 29.125 216.0677L25.28125 216.0677L25.28125 215.0052L28.734375 215.0052Q29.546875 215.0052 29.84375 214.9427Q30.25 214.84895 30.5 214.53645Q30.734375 214.20833 30.734375 213.72395Q30.734375 213.2552 30.5 212.84895Q30.25 212.42708 29.828125 212.2552Q29.40625 212.0677 28.609375 212.0677L25.28125 212.0677L25.28125 211.02083L31.5 211.02083L31.5 211.95833ZM30.5625 206.73958L31.484375 206.58333Q31.578125 207.03645 31.578125 207.3802Q31.578125 207.95833 31.40625 208.27083Q31.21875 208.58333 30.921875 208.72395Q30.625 208.84895 29.671875 208.84895L26.09375 208.84895L26.09375 209.61458L25.28125 209.61458L25.28125 208.84895L23.734375 208.84895L23.109375 207.80208L25.28125 207.80208L25.28125 206.73958L26.09375 206.73958L26.09375 207.80208L29.734375 207.80208Q30.1875 207.80208 30.3125 207.7552Q30.4375 207.6927 30.515625 207.5677Q30.59375 207.4427 30.59375 207.20833Q30.59375 207.02083 30.5625 206.73958ZM24.125 206.03645L22.90625 206.03645L22.90625 204.97395L24.125 204.97395L24.125 206.03645ZM31.5 206.03645L25.28125 206.03645L25.28125 204.97395L31.5 204.97395L31.5 206.03645ZM28.390625 203.42708Q26.65625 203.42708 25.828125 202.47395Q25.140625 201.67708 25.140625 200.52083Q25.140625 199.23958 25.984375 198.42708Q26.8125 197.59895 28.296875 197.59895Q29.5 197.59895 30.1875 197.95833Q30.875 198.3177 31.265625 199.02083Q31.640625 199.70833 31.640625 200.52083Q31.640625 201.8177 30.8125 202.6302Q29.96875 203.42708 28.390625 203.42708ZM28.390625 202.34895Q29.578125 202.34895 30.171875 201.83333Q30.765625 201.30208 30.765625 200.52083Q30.765625 199.72395 30.171875 199.20833Q29.578125 198.6927 28.359375 198.6927Q27.203125 198.6927 26.609375 199.22395Q26.015625 199.73958 26.015625 200.52083Q26.015625 201.30208 26.609375 201.83333Q27.1875 202.34895 28.390625 202.34895ZM31.5 196.03645L25.28125 196.03645L25.28125 195.09895L26.15625 195.09895Q25.140625 194.41145 25.140625 193.11458Q25.140625 192.55208 25.34375 192.08333Q25.546875 191.59895 25.875 191.36458Q26.203125 191.1302 26.640625 191.03645Q26.9375 190.98958 27.671875 190.98958L31.5 190.98958L31.5 192.03645L27.71875 192.03645Q27.0625 192.03645 26.75 192.16145Q26.4375 192.28645 26.25 192.59895Q26.046875 192.91145 26.046875 193.33333Q26.046875 194.0052 26.484375 194.5052Q26.90625 194.98958 28.09375 194.98958L31.5 194.98958L31.5 196.03645ZM30.5625 183.73958L31.484375 183.58333Q31.578125 184.03645 31.578125 184.3802Q31.578125 184.95833 31.40625 185.27083Q31.21875 185.58333 30.921875 185.72395Q30.625 185.84895 29.671875 185.84895L26.09375 185.84895L26.09375 186.61458L25.28125 186.61458L25.28125 185.84895L23.734375 185.84895L23.109375 184.80208L25.28125 184.80208L25.28125 183.73958L26.09375 183.73958L26.09375 184.80208L29.734375 184.80208Q30.1875 184.80208 30.3125 184.7552Q30.4375 184.6927 30.515625 184.5677Q30.59375 184.4427 30.59375 184.20833Q30.59375 184.02083 30.5625 183.73958ZM24.125 183.03645L22.90625 183.03645L22.90625 181.97395L24.125 181.97395L24.125 183.03645ZM31.5 183.03645L25.28125 183.03645L25.28125 181.97395L31.5 181.97395L31.5 183.03645ZM31.5 180.03645L25.28125 180.03645L25.28125 179.09895L26.15625 179.09895Q25.6875 178.80208 25.421875 178.3177Q25.140625 177.83333 25.140625 177.20833Q25.140625 176.52083 25.421875 176.08333Q25.703125 175.6302 26.21875 175.45833Q25.140625 174.70833 25.140625 173.53645Q25.140625 172.59895 25.65625 172.11458Q26.15625 171.61458 27.234375 171.61458L31.5 171.61458L31.5 172.66145L27.578125 172.66145Q26.953125 172.66145 26.671875 172.77083Q26.390625 172.86458 26.21875 173.1302Q26.046875 173.39583 26.046875 173.77083Q26.046875 174.42708 26.484375 174.86458Q26.921875 175.28645 27.890625 175.28645L31.5 175.28645L31.5 176.34895L27.453125 176.34895Q26.75 176.34895 26.40625 176.61458Q26.046875 176.86458 26.046875 177.4427Q26.046875 177.89583 26.28125 178.27083Q26.515625 178.64583 26.96875 178.8177Q27.421875 178.98958 28.265625 178.98958L31.5 178.98958L31.5 180.03645ZM29.5 164.78645L29.625 163.6927Q30.578125 163.9427 31.109375 164.64583Q31.640625 165.34895 31.640625 166.42708Q31.640625 167.78645 30.796875 168.59895Q29.953125 169.39583 28.4375 169.39583Q26.875 169.39583 26.015625 168.58333Q25.140625 167.77083 25.140625 166.48958Q25.140625 165.23958 25.984375 164.45833Q26.828125 163.66145 28.375 163.66145Q28.46875 163.66145 28.65625 163.66145L28.65625 168.30208Q29.6875 168.23958 30.234375 167.72395Q30.765625 167.20833 30.765625 166.42708Q30.765625 165.84895 30.46875 165.4427Q30.15625 165.02083 29.5 164.78645ZM27.796875 168.23958L27.796875 164.77083Q27.0 164.83333 26.609375 165.16145Q26.0 165.67708 26.0 166.47395Q26.0 167.20833 26.484375 167.70833Q26.96875 168.1927 27.796875 168.23958Z" fill-rule="nonzero"/><path fill="#000000" d="M67.0 337.26562Q67.0 335.73438 67.3125 334.8125Q67.625 333.875 68.234375 333.375Q68.859375 332.875 69.796875 332.875Q70.484375 332.875 71.0 333.15625Q71.53125 333.4375 71.875 333.96875Q72.21875 334.48438 72.40625 335.23438Q72.59375 335.98438 72.59375 337.26562Q72.59375 338.78125 72.28125 339.70312Q71.984375 340.625 71.359375 341.14062Q70.75 341.64062 69.796875 341.64062Q68.5625 341.64062 67.84375 340.75Q67.0 339.6875 67.0 337.26562ZM68.078125 337.26562Q68.078125 339.375 68.578125 340.07812Q69.078125 340.78125 69.796875 340.78125Q70.53125 340.78125 71.015625 340.07812Q71.515625 339.375 71.515625 337.26562Q71.515625 335.14062 71.015625 334.45312Q70.53125 333.75 69.78125 333.75Q69.0625 333.75 68.625 334.35938Q68.078125 335.14062 68.078125 337.26562Z" fill-rule="nonzero"/><path fill="#000000" d="M60.0 268.66666L61.109375 268.5729Q61.234375 269.3854 61.671875 269.79166Q62.125 270.1979 62.765625 270.1979Q63.515625 270.1979 64.046875 269.61978Q64.578125 269.04166 64.578125 268.10416Q64.578125 267.1979 64.0625 266.68228Q63.5625 266.15103 62.734375 266.15103Q62.234375 266.15103 61.8125 266.3854Q61.40625 266.61978 61.171875 266.97916L60.1875 266.85416L61.015625 262.4479L65.296875 262.4479L65.296875 263.4479L61.859375 263.4479L61.40625 265.7604Q62.171875 265.21353 63.015625 265.21353Q64.140625 265.21353 64.90625 265.99478Q65.6875 266.77603 65.6875 268.0104Q65.6875 269.16666 65.015625 270.02603Q64.1875 271.05728 62.765625 271.05728Q61.59375 271.05728 60.84375 270.40103Q60.109375 269.74478 60.0 268.66666ZM67.0 266.68228Q67.0 265.15103 67.3125 264.22916Q67.625 263.29166 68.234375 262.79166Q68.859375 262.29166 69.796875 262.29166Q70.484375 262.29166 71.0 262.5729Q71.53125 262.85416 71.875 263.3854Q72.21875 263.90103 72.40625 264.65103Q72.59375 265.40103 72.59375 266.68228Q72.59375 268.1979 72.28125 269.11978Q71.984375 270.04166 71.359375 270.55728Q70.75 271.05728 69.796875 271.05728Q68.5625 271.05728 67.84375 270.16666Q67.0 269.10416 67.0 266.68228ZM68.078125 266.68228Q68.078125 268.79166 68.578125 269.49478Q69.078125 270.1979 69.796875 270.1979Q70.53125 270.1979 71.015625 269.49478Q71.515625 268.79166 71.515625 266.68228Q71.515625 264.55728 71.015625 263.86978Q70.53125 263.16666 69.78125 263.16666Q69.0625 263.16666 68.625 263.77603Q68.078125 264.55728 68.078125 266.68228Z" fill-rule="nonzero"/><path fill="#000000" d="M56.96875 200.33333L55.921875 200.33333L55.921875 193.61458Q55.53125 193.97395 54.90625 194.34895Q54.296875 194.70833 53.8125 194.8802L53.8125 193.86458Q54.6875 193.4427 55.34375 192.86458Q56.015625 192.27083 56.296875 191.70833L56.96875 191.70833L56.96875 200.33333ZM60.0 196.09895Q60.0 194.5677 60.3125 193.64583Q60.625 192.70833 61.234375 192.20833Q61.859375 191.70833 62.796875 191.70833Q63.484375 191.70833 64.0 191.98958Q64.53125 192.27083 64.875 192.80208Q65.21875 193.3177 65.40625 194.0677Q65.59375 194.8177 65.59375 196.09895Q65.59375 197.61458 65.28125 198.53645Q64.984375 199.45833 64.359375 199.97395Q63.75 200.47395 62.796875 200.47395Q61.5625 200.47395 60.84375 199.58333Q60.0 198.52083 60.0 196.09895ZM61.078125 196.09895Q61.078125 198.20833 61.578125 198.91145Q62.078125 199.61458 62.796875 199.61458Q63.53125 199.61458 64.015625 198.91145Q64.515625 198.20833 64.515625 196.09895Q64.515625 193.97395 64.015625 193.28645Q63.53125 192.58333 62.78125 192.58333Q62.0625 192.58333 61.625 193.1927Q61.078125 193.97395 61.078125 196.09895ZM67.0 196.09895Q67.0 194.5677 67.3125 193.64583Q67.625 192.70833 68.234375 192.20833Q68.859375 191.70833 69.796875 191.70833Q70.484375 191.70833 71.0 191.98958Q71.53125 192.27083 71.875 192.80208Q72.21875 193.3177 72.40625 194.0677Q72.59375 194.8177 72.59375 196.09895Q72.59375 197.61458 72.28125 198.53645Q71.984375 199.45833 71.359375 199.97395Q70.75 200.47395 69.796875 200.47395Q68.5625 200.47395 67.84375 199.58333Q67.0 198.52083 67.0 196.09895ZM68.078125 196.09895Q68.078125 198.20833 68.578125 198.91145Q69.078125 199.61458 69.796875 199.61458Q70.53125 199.61458 71.015625 198.91145Q71.515625 198.20833 71.515625 196.09895Q71.515625 193.97395 71.015625 193.28645Q70.53125 192.58333 69.78125 192.58333Q69.0625 192.58333 68.625 193.1927Q68.078125 193.97395 68.078125 196.09895Z" fill-rule="nonzero"/><path fill="#000000" d="M56.96875 129.75L55.921875 129.75L55.921875 123.03125Q55.53125 123.390625 54.90625 123.765625Q54.296875 124.125 53.8125 124.296875L53.8125 123.28125Q54.6875 122.859375 55.34375 122.28125Q56.015625 121.6875 56.296875 121.125L56.96875 121.125L56.96875 129.75ZM60.0 127.5L61.109375 127.40625Q61.234375 128.21875 61.671875 128.625Q62.125 129.03125 62.765625 129.03125Q63.515625 129.03125 64.046875 128.45312Q64.578125 127.875 64.578125 126.9375Q64.578125 126.03125 64.0625 125.515625Q63.5625 124.984375 62.734375 124.984375Q62.234375 124.984375 61.8125 125.21875Q61.40625 125.453125 61.171875 125.8125L60.1875 125.6875L61.015625 121.28125L65.296875 121.28125L65.296875 122.28125L61.859375 122.28125L61.40625 124.59375Q62.171875 124.046875 63.015625 124.046875Q64.140625 124.046875 64.90625 124.828125Q65.6875 125.609375 65.6875 126.84375Q65.6875 128.0 65.015625 128.85938Q64.1875 129.89062 62.765625 129.89062Q61.59375 129.89062 60.84375 129.23438Q60.109375 128.57812 60.0 127.5ZM67.0 125.515625Q67.0 123.984375 67.3125 123.0625Q67.625 122.125 68.234375 121.625Q68.859375 121.125 69.796875 121.125Q70.484375 121.125 71.0 121.40625Q71.53125 121.6875 71.875 122.21875Q72.21875 122.734375 72.40625 123.484375Q72.59375 124.234375 72.59375 125.515625Q72.59375 127.03125 72.28125 127.953125Q71.984375 128.875 71.359375 129.39062Q70.75 129.89062 69.796875 129.89062Q68.5625 129.89062 67.84375 129.0Q67.0 127.9375 67.0 125.515625ZM68.078125 125.515625Q68.078125 127.625 68.578125 128.32812Q69.078125 129.03125 69.796875 129.03125Q70.53125 129.03125 71.015625 128.32812Q71.515625 127.625 71.515625 125.515625Q71.515625 123.390625 71.015625 122.703125Q70.53125 122.0 69.78125 122.0Q69.0625 122.0 68.625 122.609375Q68.078125 123.390625 68.078125 125.515625Z" fill-rule="nonzero"/><path fill="#000000" d="M58.546875 58.151043L58.546875 59.166668L52.859375 59.166668Q52.859375 58.791668 52.984375 58.432293Q53.203125 57.854168 53.671875 57.291668Q54.15625 56.729168 55.0625 55.994793Q56.46875 54.838543 56.953125 54.166668Q57.453125 53.494793 57.453125 52.901043Q57.453125 52.276043 57.0 51.854168Q56.546875 51.416668 55.828125 51.416668Q55.0625 51.416668 54.609375 51.869793Q54.15625 52.322918 54.140625 53.135418L53.0625 53.026043Q53.171875 51.807293 53.890625 51.182293Q54.625 50.541668 55.859375 50.541668Q57.09375 50.541668 57.8125 51.229168Q58.53125 51.916668 58.53125 52.932293Q58.53125 53.447918 58.3125 53.947918Q58.109375 54.432293 57.609375 54.994793Q57.125 55.541668 56.0 56.494793Q55.046875 57.291668 54.765625 57.588543Q54.5 57.869793 54.328125 58.151043L58.546875 58.151043ZM60.0 54.932293Q60.0 53.401043 60.3125 52.479168Q60.625 51.541668 61.234375 51.041668Q61.859375 50.541668 62.796875 50.541668Q63.484375 50.541668 64.0 50.822918Q64.53125 51.104168 64.875 51.635418Q65.21875 52.151043 65.40625 52.901043Q65.59375 53.651043 65.59375 54.932293Q65.59375 56.447918 65.28125 57.369793Q64.984375 58.291668 64.359375 58.807293Q63.75 59.307293 62.796875 59.307293Q61.5625 59.307293 60.84375 58.416668Q60.0 57.354168 60.0 54.932293ZM61.078125 54.932293Q61.078125 57.041668 61.578125 57.744793Q62.078125 58.447918 62.796875 58.447918Q63.53125 58.447918 64.015625 57.744793Q64.515625 57.041668 64.515625 54.932293Q64.515625 52.807293 64.015625 52.119793Q63.53125 51.416668 62.78125 51.416668Q62.0625 51.416668 61.625 52.026043Q61.078125 52.807293 61.078125 54.932293ZM67.0 54.932293Q67.0 53.401043 67.3125 52.479168Q67.625 51.541668 68.234375 51.041668Q68.859375 50.541668 69.796875 50.541668Q70.484375 50.541668 71.0 50.822918Q71.53125 51.104168 71.875 51.635418Q72.21875 52.151043 72.40625 52.901043Q72.59375 53.651043 72.59375 54.932293Q72.59375 56.447918 72.28125 57.369793Q71.984375 58.291668 71.359375 58.807293Q70.75 59.307293 69.796875 59.307293Q68.5625 59.307293 67.84375 58.416668Q67.0 57.354168 67.0 54.932293ZM68.078125 54.932293Q68.078125 57.041668 68.578125 57.744793Q69.078125 58.447918 69.796875 58.447918Q70.53125 58.447918 71.015625 57.744793Q71.515625 57.041668 71.515625 54.932293Q71.515625 52.807293 71.015625 52.119793Q70.53125 51.416668 69.78125 51.416668Q69.0625 51.416668 68.625 52.026043Q68.078125 52.807293 68.078125 54.932293Z" fill-rule="nonzero"/><path fill="#000000" d="M80.46875 354.5L79.421875 354.5L79.421875 347.78125Q79.03125 348.14062 78.40625 348.51562Q77.796875 348.875 77.3125 349.04688L77.3125 348.03125Q78.1875 347.60938 78.84375 347.03125Q79.515625 346.4375 79.796875 345.875L80.46875 345.875L80.46875 354.5Z" fill-rule="nonzero"/><path fill="#000000" d="M222.79688 353.48438L222.79688 354.5L217.10938 354.5Q217.10938 354.125 217.23438 353.76562Q217.45312 353.1875 217.92188 352.625Q218.40625 352.0625 219.3125 351.32812Q220.71875 350.17188 221.20312 349.5Q221.70312 348.82812 221.70312 348.23438Q221.70312 347.60938 221.25 347.1875Q220.79688 346.75 220.07812 346.75Q219.3125 346.75 218.85938 347.20312Q218.40625 347.65625 218.39062 348.46875L217.3125 348.35938Q217.42188 347.14062 218.14062 346.51562Q218.875 345.875 220.10938 345.875Q221.34375 345.875 222.0625 346.5625Q222.78125 347.25 222.78125 348.26562Q222.78125 348.78125 222.5625 349.28125Q222.35938 349.76562 221.85938 350.32812Q221.375 350.875 220.25 351.82812Q219.29688 352.625 219.01562 352.92188Q218.75 353.20312 218.57812 353.48438L222.79688 353.48438Z" fill-rule="nonzero"/><path fill="#000000" d="M358.0 352.23438L359.0625 352.09375Q359.23438 352.98438 359.67188 353.39062Q360.10938 353.78125 360.73438 353.78125Q361.48438 353.78125 362.0 353.26562Q362.51562 352.75 362.51562 351.98438Q362.51562 351.26562 362.03125 350.79688Q361.5625 350.3125 360.82812 350.3125Q360.53125 350.3125 360.07812 350.4375L360.20312 349.5Q360.3125 349.51562 360.375 349.51562Q361.04688 349.51562 361.57812 349.17188Q362.125 348.8125 362.125 348.07812Q362.125 347.5 361.73438 347.125Q361.34375 346.73438 360.71875 346.73438Q360.10938 346.73438 359.6875 347.125Q359.28125 347.51562 359.17188 348.28125L358.10938 348.09375Q358.29688 347.04688 358.98438 346.46875Q359.67188 345.875 360.6875 345.875Q361.39062 345.875 361.98438 346.1875Q362.57812 346.48438 362.89062 347.0Q363.20312 347.51562 363.20312 348.10938Q363.20312 348.65625 362.90625 349.125Q362.60938 349.57812 362.03125 349.84375Q362.78125 350.01562 363.20312 350.57812Q363.625 351.125 363.625 351.96875Q363.625 353.09375 362.79688 353.875Q361.98438 354.65625 360.73438 354.65625Q359.60938 354.65625 358.85938 353.98438Q358.10938 353.29688 358.0 352.23438Z" fill-rule="nonzero"/><path fill="#000000" d="M502.125 354.5L502.125 352.4375L498.40625 352.4375L498.40625 351.46875L502.32812 345.90625L503.1875 345.90625L503.1875 351.46875L504.34375 351.46875L504.34375 352.4375L503.1875 352.4375L503.1875 354.5L502.125 354.5ZM502.125 351.46875L502.125 347.60938L499.4375 351.46875L502.125 351.46875Z" fill-rule="nonzero"/><path fill="#000000" d="M639.5 352.25L640.6094 352.15625Q640.7344 352.96875 641.1719 353.375Q641.625 353.78125 642.2656 353.78125Q643.0156 353.78125 643.5469 353.20312Q644.0781 352.625 644.0781 351.6875Q644.0781 350.78125 643.5625 350.26562Q643.0625 349.73438 642.2344 349.73438Q641.7344 349.73438 641.3125 349.96875Q640.90625 350.20312 640.6719 350.5625L639.6875 350.4375L640.5156 346.03125L644.7969 346.03125L644.7969 347.03125L641.3594 347.03125L640.90625 349.34375Q641.6719 348.79688 642.5156 348.79688Q643.6406 348.79688 644.40625 349.57812Q645.1875 350.35938 645.1875 351.59375Q645.1875 352.75 644.5156 353.60938Q643.6875 354.64062 642.2656 354.64062Q641.09375 354.64062 640.34375 353.98438Q639.6094 353.32812 639.5 352.25Z" fill-rule="nonzero"/><path stroke="#4285f4" stroke-width="4.0" stroke-linecap="butt" d="M121.0 27.5L133.0 27.5" fill-rule="nonzero"/><path fill="#1a1a1a" d="M141.875 31.5L141.875 22.90625L143.01562 22.90625L143.01562 30.484375L147.25 30.484375L147.25 31.5L141.875 31.5ZM148.40625 28.390625Q148.40625 26.65625 149.35938 25.828125Q150.15625 25.140625 151.3125 25.140625Q152.59375 25.140625 153.40625 25.984375Q154.23438 26.8125 154.23438 28.296875Q154.23438 29.5 153.875 30.1875Q153.51562 30.875 152.8125 31.265625Q152.125 31.640625 151.3125 31.640625Q150.01562 31.640625 149.20312 30.8125Q148.40625 29.96875 148.40625 28.390625ZM149.48438 28.390625Q149.48438 29.578125 150.0 30.171875Q150.53125 30.765625 151.3125 30.765625Q152.10938 30.765625 152.625 30.171875Q153.14062 29.578125 153.14062 28.359375Q153.14062 27.203125 152.60938 26.609375Q152.09375 26.015625 151.3125 26.015625Q150.53125 26.015625 150.0 26.609375Q149.48438 27.1875 149.48438 28.390625ZM159.85938 29.21875L160.89062 29.359375Q160.71875 30.421875 160.01562 31.03125Q159.3125 31.640625 158.29688 31.640625Q157.01562 31.640625 156.23438 30.8125Q155.46875 29.96875 155.46875 28.40625Q155.46875 27.40625 155.79688 26.65625Q156.14062 25.890625 156.8125 25.515625Q157.5 25.140625 158.3125 25.140625Q159.3125 25.140625 159.95312 25.65625Q160.60938 26.15625 160.79688 27.109375L159.76562 27.265625Q159.625 26.640625 159.25 26.328125Q158.875 26.0 158.34375 26.0Q157.54688 26.0 157.04688 26.578125Q156.54688 27.140625 156.54688 28.375Q156.54688 29.640625 157.03125 30.203125Q157.51562 30.765625 158.28125 30.765625Q158.90625 30.765625 159.3125 30.390625Q159.73438 30.015625 159.85938 29.21875ZM165.85938 30.734375Q165.26562 31.234375 164.71875 31.4375Q164.1875 31.640625 163.5625 31.640625Q162.53125 31.640625 161.98438 31.140625Q161.4375 30.640625 161.4375 29.859375Q161.4375 29.40625 161.64062 29.03125Q161.84375 28.640625 162.1875 28.421875Q162.53125 28.1875 162.95312 28.078125Q163.25 27.984375 163.89062 27.90625Q165.15625 27.765625 165.76562 27.546875Q165.76562 27.328125 165.76562 27.28125Q165.76562 26.625 165.46875 26.359375Q165.0625 26.015625 164.26562 26.015625Q163.53125 26.015625 163.17188 26.28125Q162.8125 26.53125 162.64062 27.1875L161.60938 27.046875Q161.75 26.390625 162.07812 25.984375Q162.40625 25.578125 163.01562 25.359375Q163.625 25.140625 164.42188 25.140625Q165.21875 25.140625 165.71875 25.328125Q166.21875 25.515625 166.45312 25.796875Q166.6875 26.078125 166.78125 26.515625Q166.82812 26.78125 166.82812 27.484375L166.82812 28.890625Q166.82812 30.359375 166.89062 30.75Q166.96875 31.140625 167.17188 31.5L166.0625 31.5Q165.90625 31.171875 165.85938 30.734375ZM165.76562 28.375Q165.1875 28.609375 164.04688 28.78125Q163.39062 28.875 163.125 29.0Q162.85938 29.109375 162.70312 29.328125Q162.5625 29.546875 162.5625 29.828125Q162.5625 30.25 162.875 30.53125Q163.20312 30.8125 163.8125 30.8125Q164.42188 30.8125 164.89062 30.546875Q165.375 30.28125 165.59375 29.8125Q165.76562 29.453125 165.76562 28.765625L165.76562 28.375ZM168.76562 31.5L168.76562 22.90625L169.82812 22.90625L169.82812 31.5L168.76562 31.5ZM178.82812 31.5L178.82812 30.71875Q178.23438 31.640625 177.09375 31.640625Q176.34375 31.640625 175.71875 31.234375Q175.09375 30.8125 174.75 30.078125Q174.40625 29.34375 174.40625 28.390625Q174.40625 27.46875 174.71875 26.703125Q175.03125 25.9375 175.65625 25.546875Q176.28125 25.140625 177.04688 25.140625Q177.60938 25.140625 178.04688 25.375Q178.48438 25.609375 178.76562 25.984375L178.76562 22.90625L179.8125 22.90625L179.8125 31.5L178.82812 31.5ZM175.5 28.390625Q175.5 29.59375 176.0 30.1875Q176.5 30.765625 177.1875 30.765625Q177.875 30.765625 178.35938 30.203125Q178.84375 29.640625 178.84375 28.484375Q178.84375 27.203125 178.34375 26.609375Q177.85938 26.015625 177.14062 26.015625Q176.4375 26.015625 175.96875 26.59375Q175.5 27.15625 175.5 28.390625ZM186.04688 29.5L187.14062 29.625Q186.89062 30.578125 186.1875 31.109375Q185.48438 31.640625 184.40625 31.640625Q183.04688 31.640625 182.23438 30.796875Q181.4375 29.953125 181.4375 28.4375Q181.4375 26.875 182.25 26.015625Q183.0625 25.140625 184.34375 25.140625Q185.59375 25.140625 186.375 25.984375Q187.17188 26.828125 187.17188 28.375Q187.17188 28.46875 187.17188 28.65625L182.53125 28.65625Q182.59375 29.6875 183.10938 30.234375Q183.625 30.765625 184.40625 30.765625Q184.98438 30.765625 185.39062 30.46875Q185.8125 30.15625 186.04688 29.5ZM182.59375 27.796875L186.0625 27.796875Q186.0 27.0 185.67188 26.609375Q185.15625 26.0 184.35938 26.0Q183.625 26.0 183.125 26.484375Q182.64062 26.96875 182.59375 27.796875ZM188.79688 33.890625L188.79688 25.28125L189.75 25.28125L189.75 26.078125Q190.09375 25.609375 190.51562 25.375Q190.95312 25.140625 191.5625 25.140625Q192.35938 25.140625 192.96875 25.546875Q193.57812 25.953125 193.875 26.703125Q194.1875 27.453125 194.1875 28.34375Q194.1875 29.296875 193.84375 30.0625Q193.51562 30.828125 192.85938 31.234375Q192.20312 31.640625 191.48438 31.640625Q190.95312 31.640625 190.53125 31.421875Q190.10938 31.1875 189.84375 30.859375L189.84375 33.890625L188.79688 33.890625ZM189.75 28.421875Q189.75 29.625 190.23438 30.203125Q190.71875 30.765625 191.40625 30.765625Q192.10938 30.765625 192.60938 30.171875Q193.10938 29.578125 193.10938 28.328125Q193.10938 27.140625 192.625 26.5625Q192.14062 25.96875 191.45312 25.96875Q190.78125 25.96875 190.26562 26.59375Q189.75 27.21875 189.75 28.421875ZM195.76562 31.5L195.76562 22.90625L196.82812 22.90625L196.82812 31.5L195.76562 31.5ZM198.40625 28.390625Q198.40625 26.65625 199.35938 25.828125Q200.15625 25.140625 201.3125 25.140625Q202.59375 25.140625 203.40625 25.984375Q204.23438 26.8125 204.23438 28.296875Q204.23438 29.5 203.875 30.1875Q203.51562 30.875 202.8125 31.265625Q202.125 31.640625 201.3125 31.640625Q200.01562 31.640625 199.20312 30.8125Q198.40625 29.96875 198.40625 28.390625ZM199.48438 28.390625Q199.48438 29.578125 200.0 30.171875Q200.53125 30.765625 201.3125 30.765625Q202.10938 30.765625 202.625 30.171875Q203.14062 29.578125 203.14062 28.359375Q203.14062 27.203125 202.60938 26.609375Q202.09375 26.015625 201.3125 26.015625Q200.53125 26.015625 200.0 26.609375Q199.48438 27.1875 199.48438 28.390625ZM205.75 33.890625L205.625 32.90625Q205.96875 33.0 206.23438 33.0Q206.57812 33.0 206.78125 32.875Q207.0 32.765625 207.14062 32.5625Q207.23438 32.390625 207.46875 31.765625Q207.48438 31.6875 207.5625 31.515625L205.1875 25.28125L206.32812 25.28125L207.625 28.875Q207.875 29.5625 208.07812 30.328125Q208.26562 29.59375 208.51562 28.90625L209.84375 25.28125L210.89062 25.28125L208.53125 31.609375Q208.14062 32.625 207.9375 33.015625Q207.65625 33.546875 207.28125 33.78125Q206.92188 34.03125 206.42188 34.03125Q206.125 34.03125 205.75 33.890625ZM210.79688 31.5L210.79688 25.28125L211.73438 25.28125L211.73438 26.15625Q212.03125 25.6875 212.51562 25.421875Q213.0 25.140625 213.625 25.140625Q214.3125 25.140625 214.75 25.421875Q215.20312 25.703125 215.375 26.21875Q216.125 25.140625 217.29688 25.140625Q218.23438 25.140625 218.71875 25.65625Q219.21875 26.15625 219.21875 27.234375L219.21875 31.5L218.17188 31.5L218.17188 27.578125Q218.17188 26.953125 218.0625 26.671875Q217.96875 26.390625 217.70312 26.21875Q217.4375 26.046875 217.0625 26.046875Q216.40625 26.046875 215.96875 26.484375Q215.54688 26.921875 215.54688 27.890625L215.54688 31.5L214.48438 31.5L214.48438 27.453125Q214.48438 26.75 214.21875 26.40625Q213.96875 26.046875 213.39062 26.046875Q212.9375 26.046875 212.5625 26.28125Q212.1875 26.515625 212.01562 26.96875Q211.84375 27.421875 211.84375 28.265625L211.84375 31.5L210.79688 31.5ZM226.04688 29.5L227.14062 29.625Q226.89062 30.578125 226.1875 31.109375Q225.48438 31.640625 224.40625 31.640625Q223.04688 31.640625 222.23438 30.796875Q221.4375 29.953125 221.4375 28.4375Q221.4375 26.875 222.25 26.015625Q223.0625 25.140625 224.34375 25.140625Q225.59375 25.140625 226.375 25.984375Q227.17188 26.828125 227.17188 28.375Q227.17188 28.46875 227.17188 28.65625L222.53125 28.65625Q222.59375 29.6875 223.10938 30.234375Q223.625 30.765625 224.40625 30.765625Q224.98438 30.765625 225.39062 30.46875Q225.8125 30.15625 226.04688 29.5ZM222.59375 27.796875L226.0625 27.796875Q226.0 27.0 225.67188 26.609375Q225.15625 26.0 224.35938 26.0Q223.625 26.0 223.125 26.484375Q222.64062 26.96875 222.59375 27.796875ZM228.79688 31.5L228.79688 25.28125L229.73438 25.28125L229.73438 26.15625Q230.42188 25.140625 231.71875 25.140625Q232.28125 25.140625 232.75 25.34375Q233.23438 25.546875 233.46875 25.875Q233.70312 26.203125 233.79688 26.640625Q233.84375 26.9375 233.84375 27.671875L233.84375 31.5L232.79688 31.5L232.79688 27.71875Q232.79688 27.0625 232.67188 26.75Q232.54688 26.4375 232.23438 26.25Q231.92188 26.046875 231.5 26.046875Q230.82812 26.046875 230.32812 26.484375Q229.84375 26.90625 229.84375 28.09375L229.84375 31.5L228.79688 31.5ZM238.09375 30.5625L238.25 31.484375Q237.79688 31.578125 237.45312 31.578125Q236.875 31.578125 236.5625 31.40625Q236.25 31.21875 236.10938 30.921875Q235.98438 30.625 235.98438 29.671875L235.98438 26.09375L235.21875 26.09375L235.21875 25.28125L235.98438 25.28125L235.98438 23.734375L237.03125 23.109375L237.03125 25.28125L238.09375 25.28125L238.09375 26.09375L237.03125 26.09375L237.03125 29.734375Q237.03125 30.1875 237.07812 30.3125Q237.14062 30.4375 237.26562 30.515625Q237.39062 30.59375 237.625 30.59375Q237.8125 30.59375 238.09375 30.5625Z" fill-rule="nonzero"/><path stroke="#ea4335" stroke-width="4.0" stroke-linecap="butt" d="M254.0 27.5L266.0 27.5" fill-rule="nonzero"/><path fill="#1a1a1a" d="M273.98438 31.5L277.28125 22.90625L278.5 22.90625L282.01562 31.5L280.73438 31.5L279.71875 28.890625L276.14062 28.890625L275.1875 31.5L273.98438 31.5ZM276.46875 27.96875L279.375 27.96875L278.48438 25.59375Q278.0625 24.515625 277.875 23.8125Q277.70312 24.640625 277.40625 25.453125L276.46875 27.96875ZM281.23438 31.5L281.23438 30.640625L285.20312 26.09375Q284.51562 26.125 284.0 26.125L281.46875 26.125L281.46875 25.28125L286.5625 25.28125L286.5625 25.96875L283.1875 29.921875L282.53125 30.640625Q283.25 30.59375 283.85938 30.59375L286.75 30.59375L286.75 31.5L281.23438 31.5ZM290.875 31.5L290.875 30.578125Q290.14062 31.640625 288.89062 31.640625Q288.34375 31.640625 287.85938 31.4375Q287.39062 31.21875 287.15625 30.90625Q286.92188 30.578125 286.82812 30.109375Q286.76562 29.8125 286.76562 29.125L286.76562 25.28125L287.82812 25.28125L287.82812 28.734375Q287.82812 29.546875 287.89062 29.84375Q287.98438 30.25 288.29688 30.5Q288.625 30.734375 289.10938 30.734375Q289.57812 30.734375 289.98438 30.5Q290.40625 30.25 290.57812 29.828125Q290.76562 29.40625 290.76562 28.609375L290.76562 25.28125L291.8125 25.28125L291.8125 31.5L290.875 31.5ZM293.78125 31.5L293.78125 25.28125L294.73438 25.28125L294.73438 26.21875Q295.09375 25.5625 295.39062 25.359375Q295.70312 25.140625 296.07812 25.140625Q296.60938 25.140625 297.15625 25.46875L296.79688 26.453125Q296.40625 26.21875 296.03125 26.21875Q295.67188 26.21875 295.39062 26.4375Q295.125 26.640625 295.01562 27.015625Q294.82812 27.578125 294.82812 28.234375L294.82812 31.5L293.78125 31.5ZM302.04688 29.5L303.14062 29.625Q302.89062 30.578125 302.1875 31.109375Q301.48438 31.640625 300.40625 31.640625Q299.04688 31.640625 298.23438 30.796875Q297.4375 29.953125 297.4375 28.4375Q297.4375 26.875 298.25 26.015625Q299.0625 25.140625 300.34375 25.140625Q301.59375 25.140625 302.375 25.984375Q303.17188 26.828125 303.17188 28.375Q303.17188 28.46875 303.17188 28.65625L298.53125 28.65625Q298.59375 29.6875 299.10938 30.234375Q299.625 30.765625 300.40625 30.765625Q300.98438 30.765625 301.39062 30.46875Q301.8125 30.15625 302.04688 29.5ZM298.59375 27.796875L302.0625 27.796875Q302.0 27.0 301.67188 26.609375Q301.15625 26.0 300.35938 26.0Q299.625 26.0 299.125 26.484375Q298.64062 26.96875 298.59375 27.796875ZM311.82812 31.5L311.82812 30.71875Q311.23438 31.640625 310.09375 31.640625Q309.34375 31.640625 308.71875 31.234375Q308.09375 30.8125 307.75 30.078125Q307.40625 29.34375 307.40625 28.390625Q307.40625 27.46875 307.71875 26.703125Q308.03125 25.9375 308.65625 25.546875Q309.28125 25.140625 310.04688 25.140625Q310.60938 25.140625 311.04688 25.375Q311.48438 25.609375 311.76562 25.984375L311.76562 22.90625L312.8125 22.90625L312.8125 31.5L311.82812 31.5ZM308.5 28.390625Q308.5 29.59375 309.0 30.1875Q309.5 30.765625 310.1875 30.765625Q310.875 30.765625 311.35938 30.203125Q311.84375 29.640625 311.84375 28.484375Q311.84375 27.203125 311.34375 26.609375Q310.85938 26.015625 310.14062 26.015625Q309.4375 26.015625 308.96875 26.59375Q308.5 27.15625 308.5 28.390625ZM319.04688 29.5L320.14062 29.625Q319.89062 30.578125 319.1875 31.109375Q318.48438 31.640625 317.40625 31.640625Q316.04688 31.640625 315.23438 30.796875Q314.4375 29.953125 314.4375 28.4375Q314.4375 26.875 315.25 26.015625Q316.0625 25.140625 317.34375 25.140625Q318.59375 25.140625 319.375 25.984375Q320.17188 26.828125 320.17188 28.375Q320.17188 28.46875 320.17188 28.65625L315.53125 28.65625Q315.59375 29.6875 316.10938 30.234375Q316.625 30.765625 317.40625 30.765625Q317.98438 30.765625 318.39062 30.46875Q318.8125 30.15625 319.04688 29.5ZM315.59375 27.796875L319.0625 27.796875Q319.0 27.0 318.67188 26.609375Q318.15625 26.0 317.35938 26.0Q316.625 26.0 316.125 26.484375Q315.64062 26.96875 315.59375 27.796875ZM321.79688 33.890625L321.79688 25.28125L322.75 25.28125L322.75 26.078125Q323.09375 25.609375 323.51562 25.375Q323.95312 25.140625 324.5625 25.140625Q325.35938 25.140625 325.96875 25.546875Q326.57812 25.953125 326.875 26.703125Q327.1875 27.453125 327.1875 28.34375Q327.1875 29.296875 326.84375 30.0625Q326.51562 30.828125 325.85938 31.234375Q325.20312 31.640625 324.48438 31.640625Q323.95312 31.640625 323.53125 31.421875Q323.10938 31.1875 322.84375 30.859375L322.84375 33.890625L321.79688 33.890625ZM322.75 28.421875Q322.75 29.625 323.23438 30.203125Q323.71875 30.765625 324.40625 30.765625Q325.10938 30.765625 325.60938 30.171875Q326.10938 29.578125 326.10938 28.328125Q326.10938 27.140625 325.625 26.5625Q325.14062 25.96875 324.45312 25.96875Q323.78125 25.96875 323.26562 26.59375Q322.75 27.21875 322.75 28.421875ZM328.76562 31.5L328.76562 22.90625L329.82812 22.90625L329.82812 31.5L328.76562 31.5ZM331.40625 28.390625Q331.40625 26.65625 332.35938 25.828125Q333.15625 25.140625 334.3125 25.140625Q335.59375 25.140625 336.40625 25.984375Q337.23438 26.8125 337.23438 28.296875Q337.23438 29.5 336.875 30.1875Q336.51562 30.875 335.8125 31.265625Q335.125 31.640625 334.3125 31.640625Q333.01562 31.640625 332.20312 30.8125Q331.40625 29.96875 331.40625 28.390625ZM332.48438 28.390625Q332.48438 29.578125 333.0 30.171875Q333.53125 30.765625 334.3125 30.765625Q335.10938 30.765625 335.625 30.171875Q336.14062 29.578125 336.14062 28.359375Q336.14062 27.203125 335.60938 26.609375Q335.09375 26.015625 334.3125 26.015625Q333.53125 26.015625 333.0 26.609375Q332.48438 27.1875 332.48438 28.390625ZM338.75 33.890625L338.625 32.90625Q338.96875 33.0 339.23438 33.0Q339.57812 33.0 339.78125 32.875Q340.0 32.765625 340.14062 32.5625Q340.23438 32.390625 340.46875 31.765625Q340.48438 31.6875 340.5625 31.515625L338.1875 25.28125L339.32812 25.28125L340.625 28.875Q340.875 29.5625 341.07812 30.328125Q341.26562 29.59375 341.51562 28.90625L342.84375 25.28125L343.89062 25.28125L341.53125 31.609375Q341.14062 32.625 340.9375 33.015625Q340.65625 33.546875 340.28125 33.78125Q339.92188 34.03125 339.42188 34.03125Q339.125 34.03125 338.75 33.890625ZM343.79688 31.5L343.79688 25.28125L344.73438 25.28125L344.73438 26.15625Q345.03125 25.6875 345.51562 25.421875Q346.0 25.140625 346.625 25.140625Q347.3125 25.140625 347.75 25.421875Q348.20312 25.703125 348.375 26.21875Q349.125 25.140625 350.29688 25.140625Q351.23438 25.140625 351.71875 25.65625Q352.21875 26.15625 352.21875 27.234375L352.21875 31.5L351.17188 31.5L351.17188 27.578125Q351.17188 26.953125 351.0625 26.671875Q350.96875 26.390625 350.70312 26.21875Q350.4375 26.046875 350.0625 26.046875Q349.40625 26.046875 348.96875 26.484375Q348.54688 26.921875 348.54688 27.890625L348.54688 31.5L347.48438 31.5L347.48438 27.453125Q347.48438 26.75 347.21875 26.40625Q346.96875 26.046875 346.39062 26.046875Q345.9375 26.046875 345.5625 26.28125Q345.1875 26.515625 345.01562 26.96875Q344.84375 27.421875 344.84375 28.265625L344.84375 31.5L343.79688 31.5ZM359.04688 29.5L360.14062 29.625Q359.89062 30.578125 359.1875 31.109375Q358.48438 31.640625 357.40625 31.640625Q356.04688 31.640625 355.23438 30.796875Q354.4375 29.953125 354.4375 28.4375Q354.4375 26.875 355.25 26.015625Q356.0625 25.140625 357.34375 25.140625Q358.59375 25.140625 359.375 25.984375Q360.17188 26.828125 360.17188 28.375Q360.17188 28.46875 360.17188 28.65625L355.53125 28.65625Q355.59375 29.6875 356.10938 30.234375Q356.625 30.765625 357.40625 30.765625Q357.98438 30.765625 358.39062 30.46875Q358.8125 30.15625 359.04688 29.5ZM355.59375 27.796875L359.0625 27.796875Q359.0 27.0 358.67188 26.609375Q358.15625 26.0 357.35938 26.0Q356.625 26.0 356.125 26.484375Q355.64062 26.96875 355.59375 27.796875ZM361.79688 31.5L361.79688 25.28125L362.73438 25.28125L362.73438 26.15625Q363.42188 25.140625 364.71875 25.140625Q365.28125 25.140625 365.75 25.34375Q366.23438 25.546875 366.46875 25.875Q366.70312 26.203125 366.79688 26.640625Q366.84375 26.9375 366.84375 27.671875L366.84375 31.5L365.79688 31.5L365.79688 27.71875Q365.79688 27.0625 365.67188 26.75Q365.54688 26.4375 365.23438 26.25Q364.92188 26.046875 364.5 26.046875Q363.82812 26.046875 363.32812 26.484375Q362.84375 26.90625 362.84375 28.09375L362.84375 31.5L361.79688 31.5ZM371.09375 30.5625L371.25 31.484375Q370.79688 31.578125 370.45312 31.578125Q369.875 31.578125 369.5625 31.40625Q369.25 31.21875 369.10938 30.921875Q368.98438 30.625 368.98438 29.671875L368.98438 26.09375L368.21875 26.09375L368.21875 25.28125L368.98438 25.28125L368.98438 23.734375L370.03125 23.109375L370.03125 25.28125L371.09375 25.28125L371.09375 26.09375L370.03125 26.09375L370.03125 29.734375Q370.03125 30.1875 370.07812 30.3125Q370.14062 30.4375 370.26562 30.515625Q370.39062 30.59375 370.625 30.59375Q370.8125 30.59375 371.09375 30.5625Z" fill-rule="nonzero"/><path stroke="#fbbc04" stroke-width="4.0" stroke-linecap="butt" d="M387.0 27.5L399.0 27.5" fill-rule="nonzero"/><path fill="#1a1a1a" d="M406.98438 31.5L410.28125 22.90625L411.5 22.90625L415.01562 31.5L413.73438 31.5L412.71875 28.890625L409.14062 28.890625L408.1875 31.5L406.98438 31.5ZM409.46875 27.96875L412.375 27.96875L411.48438 25.59375Q411.0625 24.515625 410.875 23.8125Q410.70312 24.640625 410.40625 25.453125L409.46875 27.96875ZM414.23438 31.5L414.23438 30.640625L418.20312 26.09375Q417.51562 26.125 417.0 26.125L414.46875 26.125L414.46875 25.28125L419.5625 25.28125L419.5625 25.96875L416.1875 29.921875L415.53125 30.640625Q416.25 30.59375 416.85938 30.59375L419.75 30.59375L419.75 31.5L414.23438 31.5ZM423.875 31.5L423.875 30.578125Q423.14062 31.640625 421.89062 31.640625Q421.34375 31.640625 420.85938 31.4375Q420.39062 31.21875 420.15625 30.90625Q419.92188 30.578125 419.82812 30.109375Q419.76562 29.8125 419.76562 29.125L419.76562 25.28125L420.82812 25.28125L420.82812 28.734375Q420.82812 29.546875 420.89062 29.84375Q420.98438 30.25 421.29688 30.5Q421.625 30.734375 422.10938 30.734375Q422.57812 30.734375 422.98438 30.5Q423.40625 30.25 423.57812 29.828125Q423.76562 29.40625 423.76562 28.609375L423.76562 25.28125L424.8125 25.28125L424.8125 31.5L423.875 31.5ZM426.78125 31.5L426.78125 25.28125L427.73438 25.28125L427.73438 26.21875Q428.09375 25.5625 428.39062 25.359375Q428.70312 25.140625 429.07812 25.140625Q429.60938 25.140625 430.15625 25.46875L429.79688 26.453125Q429.40625 26.21875 429.03125 26.21875Q428.67188 26.21875 428.39062 26.4375Q428.125 26.640625 428.01562 27.015625Q427.82812 27.578125 427.82812 28.234375L427.82812 31.5L426.78125 31.5ZM435.04688 29.5L436.14062 29.625Q435.89062 30.578125 435.1875 31.109375Q434.48438 31.640625 433.40625 31.640625Q432.04688 31.640625 431.23438 30.796875Q430.4375 29.953125 430.4375 28.4375Q430.4375 26.875 431.25 26.015625Q432.0625 25.140625 433.34375 25.140625Q434.59375 25.140625 435.375 25.984375Q436.17188 26.828125 436.17188 28.375Q436.17188 28.46875 436.17188 28.65625L431.53125 28.65625Q431.59375 29.6875 432.10938 30.234375Q432.625 30.765625 433.40625 30.765625Q433.98438 30.765625 434.39062 30.46875Q434.8125 30.15625 435.04688 29.5ZM431.59375 27.796875L435.0625 27.796875Q435.0 27.0 434.67188 26.609375Q434.15625 26.0 433.35938 26.0Q432.625 26.0 432.125 26.484375Q431.64062 26.96875 431.59375 27.796875ZM443.0 30.109375L443.0 27.75L440.67188 27.75L440.67188 26.765625L443.0 26.765625L443.0 24.4375L444.0 24.4375L444.0 26.765625L446.34375 26.765625L446.34375 27.75L444.0 27.75L444.0 30.109375L443.0 30.109375ZM450.875 31.5L450.875 22.90625L454.10938 22.90625Q455.09375 22.90625 455.6875 23.171875Q456.28125 23.4375 456.60938 23.984375Q456.95312 24.515625 456.95312 25.109375Q456.95312 25.65625 456.65625 26.140625Q456.35938 26.625 455.75 26.921875Q456.53125 27.15625 456.9375 27.71875Q457.35938 28.265625 457.35938 29.015625Q457.35938 29.609375 457.10938 30.140625Q456.85938 30.65625 456.48438 30.9375Q456.10938 31.21875 455.53125 31.359375Q454.96875 31.5 454.15625 31.5L450.875 31.5ZM452.01562 26.515625L453.875 26.515625Q454.625 26.515625 454.95312 26.421875Q455.39062 26.296875 455.60938 26.0Q455.82812 25.6875 455.82812 25.234375Q455.82812 24.8125 455.625 24.484375Q455.42188 24.15625 455.03125 24.046875Q454.65625 23.921875 453.73438 23.921875L452.01562 23.921875L452.01562 26.515625ZM452.01562 30.484375L454.15625 30.484375Q454.70312 30.484375 454.92188 30.4375Q455.32812 30.375 455.57812 30.21875Q455.84375 30.046875 456.01562 29.734375Q456.1875 29.421875 456.1875 29.015625Q456.1875 28.53125 455.9375 28.171875Q455.70312 27.8125 455.26562 27.671875Q454.82812 27.53125 454.0 27.53125L452.01562 27.53125L452.01562 30.484375ZM458.76562 31.5L458.76562 22.90625L459.82812 22.90625L459.82812 31.5L458.76562 31.5ZM461.40625 28.390625Q461.40625 26.65625 462.35938 25.828125Q463.15625 25.140625 464.3125 25.140625Q465.59375 25.140625 466.40625 25.984375Q467.23438 26.8125 467.23438 28.296875Q467.23438 29.5 466.875 30.1875Q466.51562 30.875 465.8125 31.265625Q465.125 31.640625 464.3125 31.640625Q463.01562 31.640625 462.20312 30.8125Q461.40625 29.96875 461.40625 28.390625ZM462.48438 28.390625Q462.48438 29.578125 463.0 30.171875Q463.53125 30.765625 464.3125 30.765625Q465.10938 30.765625 465.625 30.171875Q466.14062 29.578125 466.14062 28.359375Q466.14062 27.203125 465.60938 26.609375Q465.09375 26.015625 464.3125 26.015625Q463.53125 26.015625 463.0 26.609375Q462.48438 27.1875 462.48438 28.390625ZM469.76562 31.5L468.78125 31.5L468.78125 22.90625L469.84375 22.90625L469.84375 25.96875Q470.51562 25.140625 471.54688 25.140625Q472.125 25.140625 472.625 25.375Q473.14062 25.59375 473.46875 26.015625Q473.8125 26.4375 474.0 27.03125Q474.1875 27.625 474.1875 28.296875Q474.1875 29.890625 473.39062 30.765625Q472.59375 31.640625 471.5 31.640625Q470.39062 31.640625 469.76562 30.71875L469.76562 31.5ZM469.75 28.34375Q469.75 29.453125 470.0625 29.953125Q470.5625 30.765625 471.40625 30.765625Q472.09375 30.765625 472.59375 30.171875Q473.10938 29.578125 473.10938 28.375Q473.10938 27.15625 472.625 26.578125Q472.14062 26.0 471.45312 26.0Q470.76562 26.0 470.25 26.609375Q469.75 27.203125 469.75 28.34375ZM482.82812 31.5L482.82812 30.71875Q482.23438 31.640625 481.09375 31.640625Q480.34375 31.640625 479.71875 31.234375Q479.09375 30.8125 478.75 30.078125Q478.40625 29.34375 478.40625 28.390625Q478.40625 27.46875 478.71875 26.703125Q479.03125 25.9375 479.65625 25.546875Q480.28125 25.140625 481.04688 25.140625Q481.60938 25.140625 482.04688 25.375Q482.48438 25.609375 482.76562 25.984375L482.76562 22.90625L483.8125 22.90625L483.8125 31.5L482.82812 31.5ZM479.5 28.390625Q479.5 29.59375 480.0 30.1875Q480.5 30.765625 481.1875 30.765625Q481.875 30.765625 482.35938 30.203125Q482.84375 29.640625 482.84375 28.484375Q482.84375 27.203125 482.34375 26.609375Q481.85938 26.015625 481.14062 26.015625Q480.4375 26.015625 479.96875 26.59375Q479.5 27.15625 479.5 28.390625ZM490.04688 29.5L491.14062 29.625Q490.89062 30.578125 490.1875 31.109375Q489.48438 31.640625 488.40625 31.640625Q487.04688 31.640625 486.23438 30.796875Q485.4375 29.953125 485.4375 28.4375Q485.4375 26.875 486.25 26.015625Q487.0625 25.140625 488.34375 25.140625Q489.59375 25.140625 490.375 25.984375Q491.17188 26.828125 491.17188 28.375Q491.17188 28.46875 491.17188 28.65625L486.53125 28.65625Q486.59375 29.6875 487.10938 30.234375Q487.625 30.765625 488.40625 30.765625Q488.98438 30.765625 489.39062 30.46875Q489.8125 30.15625 490.04688 29.5ZM486.59375 27.796875L490.0625 27.796875Q490.0 27.0 489.67188 26.609375Q489.15625 26.0 488.35938 26.0Q487.625 26.0 487.125 26.484375Q486.64062 26.96875 486.59375 27.796875ZM492.79688 33.890625L492.79688 25.28125L493.75 25.28125L493.75 26.078125Q494.09375 25.609375 494.51562 25.375Q494.95312 25.140625 495.5625 25.140625Q496.35938 25.140625 496.96875 25.546875Q497.57812 25.953125 497.875 26.703125Q498.1875 27.453125 498.1875 28.34375Q498.1875 29.296875 497.84375 30.0625Q497.51562 30.828125 496.85938 31.234375Q496.20312 31.640625 495.48438 31.640625Q494.95312 31.640625 494.53125 31.421875Q494.10938 31.1875 493.84375 30.859375L493.84375 33.890625L492.79688 33.890625ZM493.75 28.421875Q493.75 29.625 494.23438 30.203125Q494.71875 30.765625 495.40625 30.765625Q496.10938 30.765625 496.60938 30.171875Q497.10938 29.578125 497.10938 28.328125Q497.10938 27.140625 496.625 26.5625Q496.14062 25.96875 495.45312 25.96875Q494.78125 25.96875 494.26562 26.59375Q493.75 27.21875 493.75 28.421875ZM499.76562 31.5L499.76562 22.90625L500.82812 22.90625L500.82812 31.5L499.76562 31.5ZM502.40625 28.390625Q502.40625 26.65625 503.35938 25.828125Q504.15625 25.140625 505.3125 25.140625Q506.59375 25.140625 507.40625 25.984375Q508.23438 26.8125 508.23438 28.296875Q508.23438 29.5 507.875 30.1875Q507.51562 30.875 506.8125 31.265625Q506.125 31.640625 505.3125 31.640625Q504.01562 31.640625 503.20312 30.8125Q502.40625 29.96875 502.40625 28.390625ZM503.48438 28.390625Q503.48438 29.578125 504.0 30.171875Q504.53125 30.765625 505.3125 30.765625Q506.10938 30.765625 506.625 30.171875Q507.14062 29.578125 507.14062 28.359375Q507.14062 27.203125 506.60938 26.609375Q506.09375 26.015625 505.3125 26.015625Q504.53125 26.015625 504.0 26.609375Q503.48438 27.1875 503.48438 28.390625ZM509.75 33.890625L509.625 32.90625Q509.96875 33.0 510.23438 33.0Q510.57812 33.0 510.78125 32.875Q511.0 32.765625 511.14062 32.5625Q511.23438 32.390625 511.46875 31.765625Q511.48438 31.6875 511.5625 31.515625L509.1875 25.28125L510.32812 25.28125L511.625 28.875Q511.875 29.5625 512.0781 30.328125Q512.2656 29.59375 512.5156 28.90625L513.84375 25.28125L514.8906 25.28125L512.53125 31.609375Q512.1406 32.625 511.9375 33.015625Q511.65625 33.546875 511.28125 33.78125Q510.92188 34.03125 510.42188 34.03125Q510.125 34.03125 509.75 33.890625ZM514.7969 31.5L514.7969 25.28125L515.7344 25.28125L515.7344 26.15625Q516.03125 25.6875 516.5156 25.421875Q517.0 25.140625 517.625 25.140625Q518.3125 25.140625 518.75 25.421875Q519.2031 25.703125 519.375 26.21875Q520.125 25.140625 521.2969 25.140625Q522.2344 25.140625 522.71875 25.65625Q523.21875 26.15625 523.21875 27.234375L523.21875 31.5L522.1719 31.5L522.1719 27.578125Q522.1719 26.953125 522.0625 26.671875Q521.96875 26.390625 521.7031 26.21875Q521.4375 26.046875 521.0625 26.046875Q520.40625 26.046875 519.96875 26.484375Q519.5469 26.921875 519.5469 27.890625L519.5469 31.5L518.4844 31.5L518.4844 27.453125Q518.4844 26.75 518.21875 26.40625Q517.96875 26.046875 517.3906 26.046875Q516.9375 26.046875 516.5625 26.28125Q516.1875 26.515625 516.0156 26.96875Q515.84375 27.421875 515.84375 28.265625L515.84375 31.5L514.7969 31.5ZM530.0469 29.5L531.1406 29.625Q530.8906 30.578125 530.1875 31.109375Q529.4844 31.640625 528.40625 31.640625Q527.0469 31.640625 526.2344 30.796875Q525.4375 29.953125 525.4375 28.4375Q525.4375 26.875 526.25 26.015625Q527.0625 25.140625 528.34375 25.140625Q529.59375 25.140625 530.375 25.984375Q531.1719 26.828125 531.1719 28.375Q531.1719 28.46875 531.1719 28.65625L526.53125 28.65625Q526.59375 29.6875 527.1094 30.234375Q527.625 30.765625 528.40625 30.765625Q528.9844 30.765625 529.3906 30.46875Q529.8125 30.15625 530.0469 29.5ZM526.59375 27.796875L530.0625 27.796875Q530.0 27.0 529.6719 26.609375Q529.15625 26.0 528.3594 26.0Q527.625 26.0 527.125 26.484375Q526.6406 26.96875 526.59375 27.796875ZM532.7969 31.5L532.7969 25.28125L533.7344 25.28125L533.7344 26.15625Q534.4219 25.140625 535.71875 25.140625Q536.28125 25.140625 536.75 25.34375Q537.2344 25.546875 537.46875 25.875Q537.7031 26.203125 537.7969 26.640625Q537.84375 26.9375 537.84375 27.671875L537.84375 31.5L536.7969 31.5L536.7969 27.71875Q536.7969 27.0625 536.6719 26.75Q536.5469 26.4375 536.2344 26.25Q535.9219 26.046875 535.5 26.046875Q534.8281 26.046875 534.3281 26.484375Q533.84375 26.90625 533.84375 28.09375L533.84375 31.5L532.7969 31.5ZM542.09375 30.5625L542.25 31.484375Q541.7969 31.578125 541.4531 31.578125Q540.875 31.578125 540.5625 31.40625Q540.25 31.21875 540.1094 30.921875Q539.9844 30.625 539.9844 29.671875L539.9844 26.09375L539.21875 26.09375L539.21875 25.28125L539.9844 25.28125L539.9844 23.734375L541.03125 23.109375L541.03125 25.28125L542.09375 25.28125L542.09375 26.09375L541.03125 26.09375L541.03125 29.734375Q541.03125 30.1875 541.0781 30.3125Q541.1406 30.4375 541.2656 30.515625Q541.3906 30.59375 541.625 30.59375Q541.8125 30.59375 542.09375 30.5625Z" fill-rule="nonzero"/></svg>